<svg id="visual" viewBox="0 0 900 600" width="900" height="600" xmlns="http://www.w3.org/2000/svg" xmlns:xlink="http://www.w3.org/1999/xlink" version="1.1"><rect x="0" y="0" width="900" height="600" fill="#EAE45F"></rect><path d="M0 200L16.7 211.3C33.3 222.7 66.7 245.3 100 254.2C133.3 263 166.7 258 200 261.2C233.3 264.3 266.7 275.7 300 271.2C333.3 266.7 366.7 246.3 400 243.8C433.3 241.3 466.7 256.7 500 260.3C533.3 264 566.7 256 600 248C633.3 240 666.7 232 700 225C733.3 218 766.7 212 800 222.2C833.3 232.3 866.7 258.7 883.3 271.8L900 285L900 0L883.3 0C866.7 0 833.3 0 800 0C766.7 0 733.3 0 700 0C666.7 0 633.3 0 600 0C566.7 0 533.3 0 500 0C466.7 0 433.3 0 400 0C366.7 0 333.3 0 300 0C266.7 0 233.3 0 200 0C166.7 0 133.3 0 100 0C66.7 0 33.3 0 16.7 0L0 0Z" fill="#ffaa33"></path><path d="M0 191L16.7 189.3C33.3 187.7 66.7 184.3 100 180C133.3 175.7 166.7 170.3 200 175.3C233.3 180.3 266.7 195.7 300 198C333.3 200.3 366.7 189.7 400 181.8C433.3 174 466.7 169 500 165.2C533.3 161.3 566.7 158.7 600 160.5C633.3 162.3 666.7 168.7 700 171.5C733.3 174.3 766.7 173.7 800 179C833.3 184.3 866.7 195.7 883.3 201.3L900 207L900 0L883.3 0C866.7 0 833.3 0 800 0C766.7 0 733.3 0 700 0C666.7 0 633.3 0 600 0C566.7 0 533.3 0 500 0C466.7 0 433.3 0 400 0C366.7 0 333.3 0 300 0C266.7 0 233.3 0 200 0C166.7 0 133.3 0 100 0C66.7 0 33.3 0 16.7 0L0 0Z" fill="#ff871b"></path><path d="M0 105L16.7 111.5C33.3 118 66.7 131 100 136.2C133.3 141.3 166.7 138.7 200 140.2C233.3 141.7 266.7 147.3 300 146.5C333.3 145.7 366.7 138.3 400 131.3C433.3 124.3 466.7 117.7 500 116.8C533.3 116 566.7 121 600 122C633.3 123 666.7 120 700 116C733.3 112 766.7 107 800 112.8C833.3 118.7 866.7 135.3 883.3 143.7L900 152L900 0L883.3 0C866.7 0 833.3 0 800 0C766.7 0 733.3 0 700 0C666.7 0 633.3 0 600 0C566.7 0 533.3 0 500 0C466.7 0 433.3 0 400 0C366.7 0 333.3 0 300 0C266.7 0 233.3 0 200 0C166.7 0 133.3 0 100 0C66.7 0 33.3 0 16.7 0L0 0Z" fill="#ff5f14"></path><path d="M0 45L16.7 49C33.3 53 66.7 61 100 69.8C133.3 78.7 166.7 88.3 200 92.7C233.3 97 266.7 96 300 89C333.3 82 366.7 69 400 62.5C433.3 56 466.7 56 500 54.3C533.3 52.7 566.7 49.3 600 49.5C633.3 49.7 666.7 53.3 700 52.8C733.3 52.3 766.7 47.7 800 51.8C833.3 56 866.7 69 883.3 75.5L900 82L900 0L883.3 0C866.7 0 833.3 0 800 0C766.7 0 733.3 0 700 0C666.7 0 633.3 0 600 0C566.7 0 533.3 0 500 0C466.7 0 433.3 0 400 0C366.7 0 333.3 0 300 0C266.7 0 233.3 0 200 0C166.7 0 133.3 0 100 0C66.7 0 33.3 0 16.7 0L0 0Z" fill="#fd1d1d"></path></svg>